<mxfile host="65bd71144e">
    <diagram id="xssPVQGVZekKtmBHHXIr" name="Page-1">
        <mxGraphModel dx="973" dy="680" grid="1" gridSize="10" guides="1" tooltips="1" connect="1" arrows="1" fold="1" page="0" pageScale="1" pageWidth="850" pageHeight="1100" background="#ffffff" math="0" shadow="0">
            <root>
                <mxCell id="0"/>
                <mxCell id="1" parent="0"/>
                <mxCell id="152" style="edgeStyle=none;html=1;entryX=1;entryY=0.5;entryDx=0;entryDy=0;strokeWidth=2;fillColor=none;" edge="1" parent="1" source="32" target="126">
                    <mxGeometry relative="1" as="geometry">
                        <mxPoint x="440" y="470" as="targetPoint"/>
                    </mxGeometry>
                </mxCell>
                <mxCell id="32" value="value_data" style="shape=table;startSize=30;container=1;collapsible=0;childLayout=tableLayout;labelBackgroundColor=none;fontFamily=Helvetica;fontSize=12;strokeWidth=2;fillColor=none;" parent="1" vertex="1">
                    <mxGeometry x="560" y="260" width="190" height="289" as="geometry"/>
                </mxCell>
                <mxCell id="33" value="" style="shape=tableRow;horizontal=0;startSize=0;swimlaneHead=0;swimlaneBody=0;top=0;left=0;bottom=0;right=0;collapsible=0;dropTarget=0;fillColor=none;points=[[0,0.5],[1,0.5]];portConstraint=eastwest;labelBackgroundColor=none;fontFamily=Helvetica;fontSize=12;strokeWidth=2;" parent="32" vertex="1">
                    <mxGeometry y="30" width="190" height="32" as="geometry"/>
                </mxCell>
                <mxCell id="80" value="PK" style="shape=partialRectangle;html=1;whiteSpace=wrap;connectable=0;overflow=hidden;fillColor=none;top=0;left=0;bottom=0;right=0;pointerEvents=1;labelBackgroundColor=none;labelBorderColor=none;fontFamily=Helvetica;fontSize=12;strokeWidth=2;" parent="33" vertex="1">
                    <mxGeometry width="40" height="32" as="geometry">
                        <mxRectangle width="40" height="32" as="alternateBounds"/>
                    </mxGeometry>
                </mxCell>
                <mxCell id="34" value="&lt;span style=&quot;font-size: 12px; text-align: start;&quot;&gt;id&lt;/span&gt;" style="shape=partialRectangle;html=1;whiteSpace=wrap;connectable=0;overflow=hidden;fillColor=none;top=0;left=0;bottom=0;right=0;pointerEvents=1;labelBackgroundColor=none;labelBorderColor=none;fontFamily=Helvetica;fontSize=12;strokeWidth=2;" parent="33" vertex="1">
                    <mxGeometry x="40" width="150" height="32" as="geometry">
                        <mxRectangle width="150" height="32" as="alternateBounds"/>
                    </mxGeometry>
                </mxCell>
                <mxCell id="119" style="shape=tableRow;horizontal=0;startSize=0;swimlaneHead=0;swimlaneBody=0;top=0;left=0;bottom=0;right=0;collapsible=0;dropTarget=0;fillColor=none;points=[[0,0.5],[1,0.5]];portConstraint=eastwest;labelBackgroundColor=none;fontFamily=Helvetica;fontSize=12;strokeWidth=2;" vertex="1" parent="32">
                    <mxGeometry y="62" width="190" height="32" as="geometry"/>
                </mxCell>
                <mxCell id="120" value="FK" style="shape=partialRectangle;html=1;whiteSpace=wrap;connectable=0;overflow=hidden;fillColor=none;top=0;left=0;bottom=0;right=0;pointerEvents=1;labelBackgroundColor=none;labelBorderColor=none;fontFamily=Helvetica;fontSize=12;verticalAlign=top;rowspan=7;colspan=1;strokeWidth=2;" vertex="1" parent="119">
                    <mxGeometry width="40" height="227" as="geometry">
                        <mxRectangle width="40" height="32" as="alternateBounds"/>
                    </mxGeometry>
                </mxCell>
                <mxCell id="121" value="entity_type" style="shape=partialRectangle;html=1;whiteSpace=wrap;connectable=0;overflow=hidden;fillColor=none;top=0;left=0;bottom=0;right=0;pointerEvents=1;labelBackgroundColor=none;labelBorderColor=none;fontFamily=Helvetica;fontSize=12;strokeWidth=2;" vertex="1" parent="119">
                    <mxGeometry x="40" width="150" height="32" as="geometry">
                        <mxRectangle width="150" height="32" as="alternateBounds"/>
                    </mxGeometry>
                </mxCell>
                <mxCell id="136" value="" style="shape=tableRow;horizontal=0;startSize=0;swimlaneHead=0;swimlaneBody=0;top=0;left=0;bottom=0;right=0;collapsible=0;dropTarget=0;fillColor=none;points=[[0,0.5],[1,0.5]];portConstraint=eastwest;labelBackgroundColor=none;fontFamily=Helvetica;fontSize=12;strokeWidth=2;" vertex="1" parent="32">
                    <mxGeometry y="94" width="190" height="33" as="geometry"/>
                </mxCell>
                <mxCell id="137" value="" style="shape=partialRectangle;html=1;whiteSpace=wrap;connectable=0;overflow=hidden;fillColor=none;top=0;left=0;bottom=0;right=0;pointerEvents=1;fontColor=default;strokeColor=none;labelBackgroundColor=none;labelBorderColor=none;fontFamily=Helvetica;fontSize=12;verticalAlign=top;" vertex="1" visible="0" parent="136">
                    <mxGeometry width="40" height="33" as="geometry">
                        <mxRectangle width="40" height="33" as="alternateBounds"/>
                    </mxGeometry>
                </mxCell>
                <mxCell id="138" value="&lt;span style=&quot;font-size: 12px; text-align: start;&quot;&gt;entity_id (FK to district)&lt;/span&gt;" style="shape=partialRectangle;html=1;whiteSpace=wrap;connectable=0;overflow=hidden;fillColor=none;top=0;left=0;bottom=0;right=0;pointerEvents=1;labelBackgroundColor=none;labelBorderColor=none;fontFamily=Helvetica;fontSize=12;strokeWidth=2;" vertex="1" parent="136">
                    <mxGeometry x="40" width="150" height="33" as="geometry">
                        <mxRectangle width="150" height="33" as="alternateBounds"/>
                    </mxGeometry>
                </mxCell>
                <mxCell id="35" value="" style="shape=tableRow;horizontal=0;startSize=0;swimlaneHead=0;swimlaneBody=0;top=0;left=0;bottom=0;right=0;collapsible=0;dropTarget=0;fillColor=none;points=[[0,0.5],[1,0.5]];portConstraint=eastwest;labelBackgroundColor=none;fontFamily=Helvetica;fontSize=12;strokeWidth=2;" parent="32" vertex="1">
                    <mxGeometry y="127" width="190" height="33" as="geometry"/>
                </mxCell>
                <mxCell id="81" value="" style="shape=partialRectangle;html=1;whiteSpace=wrap;connectable=0;overflow=hidden;fillColor=none;top=0;left=0;bottom=0;right=0;pointerEvents=1;fontColor=default;strokeColor=none;labelBackgroundColor=none;labelBorderColor=none;fontFamily=Helvetica;fontSize=12;verticalAlign=top;" parent="35" vertex="1" visible="0">
                    <mxGeometry width="40" height="33" as="geometry">
                        <mxRectangle width="40" height="33" as="alternateBounds"/>
                    </mxGeometry>
                </mxCell>
                <mxCell id="36" value="&lt;span style=&quot;font-size: 12px; text-align: start;&quot;&gt;entity_id (FK to school)&lt;/span&gt;" style="shape=partialRectangle;html=1;whiteSpace=wrap;connectable=0;overflow=hidden;fillColor=none;top=0;left=0;bottom=0;right=0;pointerEvents=1;labelBackgroundColor=none;labelBorderColor=none;fontFamily=Helvetica;fontSize=12;strokeWidth=2;" parent="35" vertex="1">
                    <mxGeometry x="40" width="150" height="33" as="geometry">
                        <mxRectangle width="150" height="33" as="alternateBounds"/>
                    </mxGeometry>
                </mxCell>
                <mxCell id="37" value="" style="shape=tableRow;horizontal=0;startSize=0;swimlaneHead=0;swimlaneBody=0;top=0;left=0;bottom=0;right=0;collapsible=0;dropTarget=0;fillColor=none;points=[[0,0.5],[1,0.5]];portConstraint=eastwest;labelBackgroundColor=none;fontFamily=Helvetica;fontSize=12;strokeWidth=2;" parent="32" vertex="1">
                    <mxGeometry y="160" width="190" height="32" as="geometry"/>
                </mxCell>
                <mxCell id="82" value="" style="shape=partialRectangle;html=1;whiteSpace=wrap;connectable=0;overflow=hidden;fillColor=none;top=0;left=0;bottom=0;right=0;pointerEvents=1;fontColor=default;strokeColor=none;labelBackgroundColor=none;labelBorderColor=none;fontFamily=Helvetica;fontSize=12;" parent="37" vertex="1" visible="0">
                    <mxGeometry width="40" height="32" as="geometry">
                        <mxRectangle width="40" height="32" as="alternateBounds"/>
                    </mxGeometry>
                </mxCell>
                <mxCell id="38" value="&lt;span style=&quot;text-align: start;&quot;&gt;breakdown&lt;/span&gt;" style="shape=partialRectangle;html=1;whiteSpace=wrap;connectable=0;overflow=hidden;fillColor=none;top=0;left=0;bottom=0;right=0;pointerEvents=1;labelBackgroundColor=none;labelBorderColor=none;fontFamily=Helvetica;fontSize=12;strokeWidth=2;" parent="37" vertex="1">
                    <mxGeometry x="40" width="150" height="32" as="geometry">
                        <mxRectangle width="150" height="32" as="alternateBounds"/>
                    </mxGeometry>
                </mxCell>
                <mxCell id="39" value="" style="shape=tableRow;horizontal=0;startSize=0;swimlaneHead=0;swimlaneBody=0;top=0;left=0;bottom=0;right=0;collapsible=0;dropTarget=0;fillColor=none;points=[[0,0.5],[1,0.5]];portConstraint=eastwest;labelBackgroundColor=none;fontFamily=Helvetica;fontSize=12;strokeWidth=2;" parent="32" vertex="1">
                    <mxGeometry y="192" width="190" height="33" as="geometry"/>
                </mxCell>
                <mxCell id="83" value="" style="shape=partialRectangle;html=1;whiteSpace=wrap;connectable=0;overflow=hidden;fillColor=none;top=0;left=0;bottom=0;right=0;pointerEvents=1;fontColor=default;strokeColor=none;labelBackgroundColor=none;labelBorderColor=none;fontFamily=Helvetica;fontSize=12;" parent="39" vertex="1" visible="0">
                    <mxGeometry width="40" height="33" as="geometry">
                        <mxRectangle width="40" height="33" as="alternateBounds"/>
                    </mxGeometry>
                </mxCell>
                <mxCell id="40" value="value_numerator" style="shape=partialRectangle;html=1;whiteSpace=wrap;connectable=0;overflow=hidden;fillColor=none;top=0;left=0;bottom=0;right=0;pointerEvents=1;labelBackgroundColor=none;labelBorderColor=none;fontFamily=Helvetica;fontSize=12;strokeWidth=2;" parent="39" vertex="1">
                    <mxGeometry x="40" width="150" height="33" as="geometry">
                        <mxRectangle width="150" height="33" as="alternateBounds"/>
                    </mxGeometry>
                </mxCell>
                <mxCell id="41" value="" style="shape=tableRow;horizontal=0;startSize=0;swimlaneHead=0;swimlaneBody=0;top=0;left=0;bottom=0;right=0;collapsible=0;dropTarget=0;fillColor=none;points=[[0,0.5],[1,0.5]];portConstraint=eastwest;labelBackgroundColor=none;fontFamily=Helvetica;fontSize=12;strokeWidth=2;" parent="32" vertex="1">
                    <mxGeometry y="225" width="190" height="32" as="geometry"/>
                </mxCell>
                <mxCell id="84" style="shape=partialRectangle;html=1;whiteSpace=wrap;connectable=0;overflow=hidden;fillColor=none;top=0;left=0;bottom=0;right=0;pointerEvents=1;fontColor=default;strokeColor=none;labelBackgroundColor=none;labelBorderColor=none;fontFamily=Helvetica;fontSize=12;" parent="41" vertex="1" visible="0">
                    <mxGeometry width="40" height="32" as="geometry">
                        <mxRectangle width="40" height="32" as="alternateBounds"/>
                    </mxGeometry>
                </mxCell>
                <mxCell id="42" value="value_denominator" style="shape=partialRectangle;html=1;whiteSpace=wrap;connectable=0;overflow=hidden;fillColor=none;top=0;left=0;bottom=0;right=0;pointerEvents=1;labelBackgroundColor=none;labelBorderColor=none;fontFamily=Helvetica;fontSize=12;strokeWidth=2;" parent="41" vertex="1">
                    <mxGeometry x="40" width="150" height="32" as="geometry">
                        <mxRectangle width="150" height="32" as="alternateBounds"/>
                    </mxGeometry>
                </mxCell>
                <mxCell id="112" style="shape=tableRow;horizontal=0;startSize=0;swimlaneHead=0;swimlaneBody=0;top=0;left=0;bottom=0;right=0;collapsible=0;dropTarget=0;fillColor=none;points=[[0,0.5],[1,0.5]];portConstraint=eastwest;labelBackgroundColor=none;fontFamily=Helvetica;fontSize=12;strokeWidth=2;" vertex="1" parent="32">
                    <mxGeometry y="257" width="190" height="32" as="geometry"/>
                </mxCell>
                <mxCell id="113" style="shape=partialRectangle;html=1;whiteSpace=wrap;connectable=0;overflow=hidden;fillColor=none;top=0;left=0;bottom=0;right=0;pointerEvents=1;fontColor=default;strokeColor=none;labelBackgroundColor=none;labelBorderColor=none;fontFamily=Helvetica;fontSize=12;" vertex="1" visible="0" parent="112">
                    <mxGeometry width="40" height="32" as="geometry">
                        <mxRectangle width="40" height="32" as="alternateBounds"/>
                    </mxGeometry>
                </mxCell>
                <mxCell id="114" value="value" style="shape=partialRectangle;html=1;whiteSpace=wrap;connectable=0;overflow=hidden;fillColor=none;top=0;left=0;bottom=0;right=0;pointerEvents=1;labelBackgroundColor=none;labelBorderColor=none;fontFamily=Helvetica;fontSize=12;strokeWidth=2;" vertex="1" parent="112">
                    <mxGeometry x="40" width="150" height="32" as="geometry">
                        <mxRectangle width="150" height="32" as="alternateBounds"/>
                    </mxGeometry>
                </mxCell>
                <mxCell id="89" value="district" style="shape=table;startSize=30;container=1;collapsible=0;childLayout=tableLayout;labelBackgroundColor=none;fontFamily=Helvetica;fontSize=12;strokeWidth=2;fillColor=none;" vertex="1" parent="1">
                    <mxGeometry x="280" y="240" width="150" height="130" as="geometry"/>
                </mxCell>
                <mxCell id="90" value="" style="shape=tableRow;horizontal=0;startSize=0;swimlaneHead=0;swimlaneBody=0;top=0;left=0;bottom=0;right=0;collapsible=0;dropTarget=0;fillColor=none;points=[[0,0.5],[1,0.5]];portConstraint=eastwest;labelBackgroundColor=none;fontFamily=Helvetica;fontSize=12;strokeWidth=2;" vertex="1" parent="89">
                    <mxGeometry y="30" width="150" height="40" as="geometry"/>
                </mxCell>
                <mxCell id="91" value="&lt;span style=&quot;font-size: 12px; text-align: start;&quot;&gt;PK&lt;/span&gt;" style="shape=partialRectangle;html=1;whiteSpace=wrap;connectable=0;overflow=hidden;fillColor=none;top=0;left=0;bottom=0;right=0;pointerEvents=1;labelBackgroundColor=none;fontFamily=Helvetica;fontSize=12;strokeWidth=2;" vertex="1" parent="90">
                    <mxGeometry width="38" height="40" as="geometry">
                        <mxRectangle width="38" height="40" as="alternateBounds"/>
                    </mxGeometry>
                </mxCell>
                <mxCell id="92" value="id" style="shape=partialRectangle;html=1;whiteSpace=wrap;connectable=0;overflow=hidden;fillColor=none;top=0;left=0;bottom=0;right=0;pointerEvents=1;labelBackgroundColor=none;fontFamily=Helvetica;fontSize=12;strokeWidth=2;" vertex="1" parent="90">
                    <mxGeometry x="38" width="112" height="40" as="geometry">
                        <mxRectangle width="112" height="40" as="alternateBounds"/>
                    </mxGeometry>
                </mxCell>
                <mxCell id="93" value="" style="shape=tableRow;horizontal=0;startSize=0;swimlaneHead=0;swimlaneBody=0;top=0;left=0;bottom=0;right=0;collapsible=0;dropTarget=0;fillColor=none;points=[[0,0.5],[1,0.5]];portConstraint=eastwest;labelBackgroundColor=none;fontFamily=Helvetica;fontSize=12;strokeWidth=2;" vertex="1" parent="89">
                    <mxGeometry y="70" width="150" height="30" as="geometry"/>
                </mxCell>
                <mxCell id="94" value="FK" style="shape=partialRectangle;html=1;whiteSpace=wrap;connectable=0;overflow=hidden;fillColor=none;top=0;left=0;bottom=0;right=0;pointerEvents=1;labelBackgroundColor=none;fontFamily=Helvetica;fontSize=12;rowspan=2;colspan=1;verticalAlign=top;strokeWidth=2;" vertex="1" parent="93">
                    <mxGeometry width="38" height="60" as="geometry">
                        <mxRectangle width="38" height="30" as="alternateBounds"/>
                    </mxGeometry>
                </mxCell>
                <mxCell id="95" value="&lt;span style=&quot;text-align: start;&quot;&gt;state_id&amp;nbsp;&lt;/span&gt;" style="shape=partialRectangle;html=1;whiteSpace=wrap;connectable=0;overflow=hidden;fillColor=none;top=0;left=0;bottom=0;right=0;pointerEvents=1;labelBackgroundColor=none;fontFamily=Helvetica;fontSize=12;strokeWidth=2;" vertex="1" parent="93">
                    <mxGeometry x="38" width="112" height="30" as="geometry">
                        <mxRectangle width="112" height="30" as="alternateBounds"/>
                    </mxGeometry>
                </mxCell>
                <mxCell id="122" style="shape=tableRow;horizontal=0;startSize=0;swimlaneHead=0;swimlaneBody=0;top=0;left=0;bottom=0;right=0;collapsible=0;dropTarget=0;fillColor=none;points=[[0,0.5],[1,0.5]];portConstraint=eastwest;labelBackgroundColor=none;fontFamily=Helvetica;fontSize=12;strokeWidth=2;" vertex="1" parent="89">
                    <mxGeometry y="100" width="150" height="30" as="geometry"/>
                </mxCell>
                <mxCell id="123" style="shape=partialRectangle;html=1;whiteSpace=wrap;connectable=0;overflow=hidden;fillColor=none;top=0;left=0;bottom=0;right=0;pointerEvents=1;labelBackgroundColor=none;fontColor=default;fontFamily=Helvetica;fontSize=12;" vertex="1" visible="0" parent="122">
                    <mxGeometry width="38" height="30" as="geometry">
                        <mxRectangle width="38" height="30" as="alternateBounds"/>
                    </mxGeometry>
                </mxCell>
                <mxCell id="124" value="&lt;span style=&quot;text-align: start;&quot;&gt;name&lt;/span&gt;" style="shape=partialRectangle;html=1;whiteSpace=wrap;connectable=0;overflow=hidden;fillColor=none;top=0;left=0;bottom=0;right=0;pointerEvents=1;labelBackgroundColor=none;fontFamily=Helvetica;fontSize=12;strokeWidth=2;" vertex="1" parent="122">
                    <mxGeometry x="38" width="112" height="30" as="geometry">
                        <mxRectangle width="112" height="30" as="alternateBounds"/>
                    </mxGeometry>
                </mxCell>
                <mxCell id="125" value="school" style="shape=table;startSize=30;container=1;collapsible=0;childLayout=tableLayout;labelBackgroundColor=none;fontFamily=Helvetica;fontSize=12;strokeWidth=2;fillColor=none;" vertex="1" parent="1">
                    <mxGeometry x="280" y="420" width="150" height="130" as="geometry"/>
                </mxCell>
                <mxCell id="126" value="" style="shape=tableRow;horizontal=0;startSize=0;swimlaneHead=0;swimlaneBody=0;top=0;left=0;bottom=0;right=0;collapsible=0;dropTarget=0;fillColor=none;points=[[0,0.5],[1,0.5]];portConstraint=eastwest;labelBackgroundColor=none;fontFamily=Helvetica;fontSize=12;strokeWidth=2;" vertex="1" parent="125">
                    <mxGeometry y="30" width="150" height="40" as="geometry"/>
                </mxCell>
                <mxCell id="127" value="&lt;span style=&quot;font-size: 12px; text-align: start;&quot;&gt;PK&lt;/span&gt;" style="shape=partialRectangle;html=1;whiteSpace=wrap;connectable=0;overflow=hidden;fillColor=none;top=0;left=0;bottom=0;right=0;pointerEvents=1;labelBackgroundColor=none;fontFamily=Helvetica;fontSize=12;strokeWidth=2;" vertex="1" parent="126">
                    <mxGeometry width="38" height="40" as="geometry">
                        <mxRectangle width="38" height="40" as="alternateBounds"/>
                    </mxGeometry>
                </mxCell>
                <mxCell id="128" value="id" style="shape=partialRectangle;html=1;whiteSpace=wrap;connectable=0;overflow=hidden;fillColor=none;top=0;left=0;bottom=0;right=0;pointerEvents=1;labelBackgroundColor=none;fontFamily=Helvetica;fontSize=12;strokeWidth=2;" vertex="1" parent="126">
                    <mxGeometry x="38" width="112" height="40" as="geometry">
                        <mxRectangle width="112" height="40" as="alternateBounds"/>
                    </mxGeometry>
                </mxCell>
                <mxCell id="129" value="" style="shape=tableRow;horizontal=0;startSize=0;swimlaneHead=0;swimlaneBody=0;top=0;left=0;bottom=0;right=0;collapsible=0;dropTarget=0;fillColor=none;points=[[0,0.5],[1,0.5]];portConstraint=eastwest;labelBackgroundColor=none;fontFamily=Helvetica;fontSize=12;strokeWidth=2;" vertex="1" parent="125">
                    <mxGeometry y="70" width="150" height="30" as="geometry"/>
                </mxCell>
                <mxCell id="130" value="FK" style="shape=partialRectangle;html=1;whiteSpace=wrap;connectable=0;overflow=hidden;fillColor=none;top=0;left=0;bottom=0;right=0;pointerEvents=1;labelBackgroundColor=none;fontFamily=Helvetica;fontSize=12;rowspan=2;colspan=1;verticalAlign=top;strokeWidth=2;" vertex="1" parent="129">
                    <mxGeometry width="38" height="60" as="geometry">
                        <mxRectangle width="38" height="30" as="alternateBounds"/>
                    </mxGeometry>
                </mxCell>
                <mxCell id="131" value="&lt;span style=&quot;text-align: start;&quot;&gt;state_id&amp;nbsp;&lt;/span&gt;" style="shape=partialRectangle;html=1;whiteSpace=wrap;connectable=0;overflow=hidden;fillColor=none;top=0;left=0;bottom=0;right=0;pointerEvents=1;labelBackgroundColor=none;fontFamily=Helvetica;fontSize=12;strokeWidth=2;" vertex="1" parent="129">
                    <mxGeometry x="38" width="112" height="30" as="geometry">
                        <mxRectangle width="112" height="30" as="alternateBounds"/>
                    </mxGeometry>
                </mxCell>
                <mxCell id="132" style="shape=tableRow;horizontal=0;startSize=0;swimlaneHead=0;swimlaneBody=0;top=0;left=0;bottom=0;right=0;collapsible=0;dropTarget=0;fillColor=none;points=[[0,0.5],[1,0.5]];portConstraint=eastwest;labelBackgroundColor=none;fontFamily=Helvetica;fontSize=12;strokeWidth=2;" vertex="1" parent="125">
                    <mxGeometry y="100" width="150" height="30" as="geometry"/>
                </mxCell>
                <mxCell id="133" style="shape=partialRectangle;html=1;whiteSpace=wrap;connectable=0;overflow=hidden;fillColor=none;top=0;left=0;bottom=0;right=0;pointerEvents=1;labelBackgroundColor=none;fontColor=default;fontFamily=Helvetica;fontSize=12;" vertex="1" visible="0" parent="132">
                    <mxGeometry width="38" height="30" as="geometry">
                        <mxRectangle width="38" height="30" as="alternateBounds"/>
                    </mxGeometry>
                </mxCell>
                <mxCell id="134" value="&lt;span style=&quot;text-align: start;&quot;&gt;name&lt;/span&gt;" style="shape=partialRectangle;html=1;whiteSpace=wrap;connectable=0;overflow=hidden;fillColor=none;top=0;left=0;bottom=0;right=0;pointerEvents=1;labelBackgroundColor=none;fontFamily=Helvetica;fontSize=12;strokeWidth=2;" vertex="1" parent="132">
                    <mxGeometry x="38" width="112" height="30" as="geometry">
                        <mxRectangle width="112" height="30" as="alternateBounds"/>
                    </mxGeometry>
                </mxCell>
                <mxCell id="139" value="state" style="shape=table;startSize=30;container=1;collapsible=0;childLayout=tableLayout;labelBackgroundColor=none;fontFamily=Helvetica;fontSize=12;strokeWidth=2;fillColor=none;" vertex="1" parent="1">
                    <mxGeometry x="60" y="310" width="150" height="100" as="geometry"/>
                </mxCell>
                <mxCell id="140" value="" style="shape=tableRow;horizontal=0;startSize=0;swimlaneHead=0;swimlaneBody=0;top=0;left=0;bottom=0;right=0;collapsible=0;dropTarget=0;fillColor=none;points=[[0,0.5],[1,0.5]];portConstraint=eastwest;labelBackgroundColor=none;fontFamily=Helvetica;fontSize=12;strokeWidth=2;" vertex="1" parent="139">
                    <mxGeometry y="30" width="150" height="40" as="geometry"/>
                </mxCell>
                <mxCell id="141" value="&lt;span style=&quot;font-size: 12px; text-align: start;&quot;&gt;PK&lt;/span&gt;" style="shape=partialRectangle;html=1;whiteSpace=wrap;connectable=0;overflow=hidden;fillColor=none;top=0;left=0;bottom=0;right=0;pointerEvents=1;labelBackgroundColor=none;fontFamily=Helvetica;fontSize=12;strokeWidth=2;" vertex="1" parent="140">
                    <mxGeometry width="38" height="40" as="geometry">
                        <mxRectangle width="38" height="40" as="alternateBounds"/>
                    </mxGeometry>
                </mxCell>
                <mxCell id="142" value="id" style="shape=partialRectangle;html=1;whiteSpace=wrap;connectable=0;overflow=hidden;fillColor=none;top=0;left=0;bottom=0;right=0;pointerEvents=1;labelBackgroundColor=none;fontFamily=Helvetica;fontSize=12;strokeWidth=2;" vertex="1" parent="140">
                    <mxGeometry x="38" width="112" height="40" as="geometry">
                        <mxRectangle width="112" height="40" as="alternateBounds"/>
                    </mxGeometry>
                </mxCell>
                <mxCell id="146" style="shape=tableRow;horizontal=0;startSize=0;swimlaneHead=0;swimlaneBody=0;top=0;left=0;bottom=0;right=0;collapsible=0;dropTarget=0;fillColor=none;points=[[0,0.5],[1,0.5]];portConstraint=eastwest;labelBackgroundColor=none;fontFamily=Helvetica;fontSize=12;strokeWidth=2;" vertex="1" parent="139">
                    <mxGeometry y="70" width="150" height="30" as="geometry"/>
                </mxCell>
                <mxCell id="147" style="shape=partialRectangle;html=1;whiteSpace=wrap;connectable=0;overflow=hidden;fillColor=none;top=0;left=0;bottom=0;right=0;pointerEvents=1;labelBackgroundColor=none;fontFamily=Helvetica;fontSize=12;strokeWidth=2;" vertex="1" parent="146">
                    <mxGeometry width="38" height="30" as="geometry">
                        <mxRectangle width="38" height="30" as="alternateBounds"/>
                    </mxGeometry>
                </mxCell>
                <mxCell id="148" value="&lt;span style=&quot;text-align: start;&quot;&gt;name&lt;/span&gt;" style="shape=partialRectangle;html=1;whiteSpace=wrap;connectable=0;overflow=hidden;fillColor=none;top=0;left=0;bottom=0;right=0;pointerEvents=1;labelBackgroundColor=none;fontFamily=Helvetica;fontSize=12;strokeWidth=2;" vertex="1" parent="146">
                    <mxGeometry x="38" width="112" height="30" as="geometry">
                        <mxRectangle width="112" height="30" as="alternateBounds"/>
                    </mxGeometry>
                </mxCell>
                <mxCell id="149" style="edgeStyle=none;html=1;entryX=1;entryY=0.5;entryDx=0;entryDy=0;exitX=0;exitY=0.5;exitDx=0;exitDy=0;strokeWidth=2;fillColor=none;" edge="1" parent="1" source="90" target="140">
                    <mxGeometry relative="1" as="geometry"/>
                </mxCell>
                <mxCell id="150" style="edgeStyle=none;html=1;exitX=-0.013;exitY=0.3;exitDx=0;exitDy=0;exitPerimeter=0;strokeWidth=2;fillColor=none;" edge="1" parent="1" source="129">
                    <mxGeometry relative="1" as="geometry">
                        <mxPoint x="210" y="360" as="targetPoint"/>
                    </mxGeometry>
                </mxCell>
                <mxCell id="151" style="edgeStyle=none;html=1;entryX=1;entryY=0.5;entryDx=0;entryDy=0;exitX=0;exitY=0.5;exitDx=0;exitDy=0;strokeWidth=2;fillColor=none;" edge="1" parent="1" source="136" target="90">
                    <mxGeometry relative="1" as="geometry"/>
                </mxCell>
            </root>
        </mxGraphModel>
    </diagram>
</mxfile>